# xmcd CD database file
#
# Track frame offsets:
#	200
#	13707
#	29017
#	49877
#	75182
#	95350
#	113150
#	130242
#	148405
#	162697
#	180192
#	194105
#
# Disc length: 2938 seconds
#
# Revision: 0
# Processed by: cddbd v1.4PL0 Copyright (c) Steve Scherf et al.
# Submitted via: CDex 1.51
#
DISCID=a60b780c
DTITLE=Donna Claires - Talking Candles
DYEAR=1993
DGENRE=Jazz
TTITLE0=take no prisoners
TTITLE1=wait n' see
TTITLE2=a woman's song to spring
TTITLE3=something to live for
TTITLE4=escape on foot
TTITLE5=i'm all smiles
TTITLE6=journey through amor (viagem pelo amor)
TTITLE7=wouldn't you rather be
TTITLE8=day by day
TTITLE9=chanty for wood and string (song for my guitar)
TTITLE10=moon ray
TTITLE11=talking candles (by the night)
EXTD=YEAR: 1993
EXTT0=
EXTT1=
EXTT2=
EXTT3=
EXTT4=
EXTT5=
EXTT6=
EXTT7=
EXTT8=
EXTT9=
EXTT10=
EXTT11=
PLAYORDER=
